<mxfile host="050f9e60-d467-49eb-84e3-f275a1c3e06d" modified="2020-09-06T07:17:35.413Z" agent="5.0 (Windows NT 10.0; Win64; x64) AppleWebKit/537.36 (KHTML, like Gecko) Code/1.48.2 Chrome/78.0.3904.130 Electron/7.3.2 Safari/537.36" etag="AriMmDGnEX0drupWAyqC" version="13.6.5">
    <diagram id="6hGFLwfOUW9BJ-s0fimq" name="SCIENTORY-ANDROID">
        <mxGraphModel dx="1166" dy="792" grid="1" gridSize="10" guides="1" tooltips="1" connect="1" arrows="1" fold="1" page="1" pageScale="1" pageWidth="827" pageHeight="1169" math="0" shadow="0">
            <root>
                <mxCell id="0"/>
                <mxCell id="1" parent="0"/>
                <mxCell id="14" style="edgeStyle=orthogonalEdgeStyle;rounded=0;orthogonalLoop=1;jettySize=auto;html=1;exitX=0;exitY=0.25;exitDx=0;exitDy=0;entryX=0.5;entryY=0;entryDx=0;entryDy=0;curved=1;" parent="1" source="9" target="10" edge="1">
                    <mxGeometry relative="1" as="geometry"/>
                </mxCell>
                <mxCell id="23" style="edgeStyle=orthogonalEdgeStyle;rounded=0;orthogonalLoop=1;jettySize=auto;html=1;exitX=1;exitY=0.5;exitDx=0;exitDy=0;entryX=0.5;entryY=0;entryDx=0;entryDy=0;curved=1;" parent="1" source="9" target="18" edge="1">
                    <mxGeometry relative="1" as="geometry"/>
                </mxCell>
                <mxCell id="26" style="edgeStyle=orthogonalEdgeStyle;rounded=0;orthogonalLoop=1;jettySize=auto;html=1;exitX=1;exitY=0.75;exitDx=0;exitDy=0;entryX=0.5;entryY=0;entryDx=0;entryDy=0;curved=1;" parent="1" source="9" target="25" edge="1">
                    <mxGeometry relative="1" as="geometry"/>
                </mxCell>
                <mxCell id="9" value="" style="shape=image;verticalLabelPosition=bottom;verticalAlign=top;aspect=fixed;imageAspect=0;image=https://user-images.githubusercontent.com/65493966/91972639-f19fb480-ed55-11ea-9518-2ae3a9b41fa3.png;" parent="1" vertex="1">
                    <mxGeometry x="348" y="252" width="130" height="267.19" as="geometry"/>
                </mxCell>
                <mxCell id="16" style="edgeStyle=orthogonalEdgeStyle;rounded=0;orthogonalLoop=1;jettySize=auto;html=1;exitX=1;exitY=0.5;exitDx=0;exitDy=0;entryX=0.571;entryY=-0.007;entryDx=0;entryDy=0;entryPerimeter=0;curved=1;" parent="1" source="10" target="12" edge="1">
                    <mxGeometry relative="1" as="geometry"/>
                </mxCell>
                <mxCell id="24" style="edgeStyle=orthogonalEdgeStyle;rounded=0;orthogonalLoop=1;jettySize=auto;html=1;exitX=0;exitY=0.25;exitDx=0;exitDy=0;entryX=0.5;entryY=0;entryDx=0;entryDy=0;curved=1;" parent="1" source="10" target="11" edge="1">
                    <mxGeometry relative="1" as="geometry"/>
                </mxCell>
                <mxCell id="54" style="edgeStyle=orthogonalEdgeStyle;rounded=0;orthogonalLoop=1;jettySize=auto;html=1;exitX=1;exitY=0.75;exitDx=0;exitDy=0;entryX=0.5;entryY=0;entryDx=0;entryDy=0;curved=1;" edge="1" parent="1" source="10" target="13">
                    <mxGeometry relative="1" as="geometry"/>
                </mxCell>
                <mxCell id="10" value="" style="shape=image;verticalLabelPosition=bottom;verticalAlign=top;aspect=fixed;imageAspect=0;image=https://user-images.githubusercontent.com/65493966/91974085-39274000-ed58-11ea-822e-8d59bdf3adee.png;" parent="1" vertex="1">
                    <mxGeometry x="39.17" y="226" width="131.37" height="270" as="geometry"/>
                </mxCell>
                <mxCell id="17" value="" style="edgeStyle=orthogonalEdgeStyle;rounded=0;orthogonalLoop=1;jettySize=auto;html=1;curved=1;" parent="1" source="11" target="13" edge="1">
                    <mxGeometry relative="1" as="geometry"/>
                </mxCell>
                <mxCell id="11" value="" style="shape=image;verticalLabelPosition=bottom;verticalAlign=top;aspect=fixed;imageAspect=0;image=https://user-images.githubusercontent.com/65493966/91974089-3a586d00-ed58-11ea-9e09-862dbbbdae1d.png;" parent="1" vertex="1">
                    <mxGeometry x="23.200000000000003" y="550" width="131.66" height="270.6" as="geometry"/>
                </mxCell>
                <mxCell id="46" style="edgeStyle=orthogonalEdgeStyle;rounded=0;orthogonalLoop=1;jettySize=auto;html=1;exitX=0.5;exitY=1;exitDx=0;exitDy=0;curved=1;" parent="1" source="12" target="13" edge="1">
                    <mxGeometry relative="1" as="geometry"/>
                </mxCell>
                <mxCell id="12" value="" style="shape=image;verticalLabelPosition=bottom;verticalAlign=top;aspect=fixed;imageAspect=0;image=https://user-images.githubusercontent.com/65493966/91974090-3af10380-ed58-11ea-8bbb-e270e6973f62.png;" parent="1" vertex="1">
                    <mxGeometry x="210" y="550" width="131.36" height="270" as="geometry"/>
                </mxCell>
                <mxCell id="13" value="" style="shape=image;verticalLabelPosition=bottom;verticalAlign=top;aspect=fixed;imageAspect=0;image=https://user-images.githubusercontent.com/65493966/91974092-3b899a00-ed58-11ea-8626-4b73da3e19d6.png;" parent="1" vertex="1">
                    <mxGeometry x="93.76000000000006" y="897" width="132.49" height="272.31" as="geometry"/>
                </mxCell>
                <mxCell id="21" value="" style="edgeStyle=orthogonalEdgeStyle;rounded=0;orthogonalLoop=1;jettySize=auto;html=1;curved=1;" parent="1" source="18" target="19" edge="1">
                    <mxGeometry relative="1" as="geometry"/>
                </mxCell>
                <mxCell id="18" value="" style="shape=image;verticalLabelPosition=bottom;verticalAlign=top;aspect=fixed;imageAspect=0;image=https://user-images.githubusercontent.com/65493966/91974885-79d38900-ed59-11ea-8bd6-bfd42b40f0da.png;" parent="1" vertex="1">
                    <mxGeometry x="670" y="29.999999999999996" width="126.5" height="260" as="geometry"/>
                </mxCell>
                <mxCell id="22" value="" style="edgeStyle=orthogonalEdgeStyle;rounded=0;orthogonalLoop=1;jettySize=auto;html=1;curved=1;" parent="1" source="19" target="20" edge="1">
                    <mxGeometry relative="1" as="geometry"/>
                </mxCell>
                <mxCell id="19" value="" style="shape=image;verticalLabelPosition=bottom;verticalAlign=top;aspect=fixed;imageAspect=0;image=https://user-images.githubusercontent.com/65493966/91974892-7b04b600-ed59-11ea-8522-0168bb317f2a.png;" parent="1" vertex="1">
                    <mxGeometry x="667.57" y="360" width="131.37" height="270" as="geometry"/>
                </mxCell>
                <mxCell id="20" value="" style="shape=image;verticalLabelPosition=bottom;verticalAlign=top;aspect=fixed;imageAspect=0;image=https://user-images.githubusercontent.com/65493966/91974894-7b9d4c80-ed59-11ea-9b5e-2b25f8a77251.png;" parent="1" vertex="1">
                    <mxGeometry x="670" y="720" width="126.5" height="260" as="geometry"/>
                </mxCell>
                <mxCell id="28" style="edgeStyle=orthogonalEdgeStyle;rounded=0;orthogonalLoop=1;jettySize=auto;html=1;exitX=0.5;exitY=1;exitDx=0;exitDy=0;entryX=0.5;entryY=0;entryDx=0;entryDy=0;curved=1;" parent="1" source="25" target="27" edge="1">
                    <mxGeometry relative="1" as="geometry"/>
                </mxCell>
                <mxCell id="25" value="THEORY&lt;br&gt;사진파일" style="rounded=0;whiteSpace=wrap;html=1;" parent="1" vertex="1">
                    <mxGeometry x="510" y="480.00000000000006" width="120" height="170" as="geometry"/>
                </mxCell>
                <mxCell id="27" value="링크 리스트&lt;br&gt;사진파일" style="rounded=0;whiteSpace=wrap;html=1;" parent="1" vertex="1">
                    <mxGeometry x="510" y="700" width="120" height="220" as="geometry"/>
                </mxCell>
                <mxCell id="40" value="" style="edgeStyle=orthogonalEdgeStyle;rounded=0;orthogonalLoop=1;jettySize=auto;html=1;curved=1;" parent="1" source="38" target="39" edge="1">
                    <mxGeometry relative="1" as="geometry"/>
                </mxCell>
                <mxCell id="38" value="시작" style="rounded=0;whiteSpace=wrap;html=1;" parent="1" vertex="1">
                    <mxGeometry x="353" y="10" width="120" height="60" as="geometry"/>
                </mxCell>
                <mxCell id="41" value="" style="edgeStyle=orthogonalEdgeStyle;rounded=0;orthogonalLoop=1;jettySize=auto;html=1;curved=1;" parent="1" source="39" target="9" edge="1">
                    <mxGeometry relative="1" as="geometry"/>
                </mxCell>
                <mxCell id="39" value="" style="shape=image;verticalLabelPosition=bottom;verticalAlign=top;aspect=fixed;imageAspect=0;image=data:image/png,iVBORw0KGgoAAAANSUhEUgAAAF4AAAB0CAYAAAAM5YU+AAAgAElEQVR4Ad19CZQdxXnu1337bjPSaGY0WhktgCSEWIQwWCxmMcRAwMYGYxwbY/CS2M47sV+cPOdlOTk5yclJfPzs53jBy3vGeIsX7IBXjLENiEXCiEVCEgjt0mik0ex3lrt3v/P9VX/funfuSGAj0Hl1zr1VXV1dy1d//fXXX391e2EYRjhBXb4yiWzQEteuWs1LuBRFgJdCNhGAcYlEFvlqRa7jxEBdnD7L+0z/Wjv/ta7A0cpvBJ2A8cf4FMooV4flmj6v6dgB/NFpx8jFCQK41sU7ESheqbGRcpWa6YcowEcGlWISQbos12wE4+S5yqS2KfabdVx88zUOnBDAKwaNrIXxjCNbKUUVpBAiQgHJXCtGD1Xwwo4dWHr6QsxZ1IkwDaF67SA+WyhU0do6Q7OP2VIc8RoGTijgiYNL/e51CUn4RWD88Dh6nsnhjr//EYbGD2HJ6afi5r+9EKefvRwtHUBYjJBsMfMCWU4U5dASdL6GEDcv+oQGXlnNxMQ4Up6P3s0T+Omd6/G7+/ZhfKiEhJeGl/fRsrwf133sArzx0jcgu7SIlJdBJWUanPI8CZAdnUjuVQNeQXQbr9StccrjOVFSciGPLg8VkRvJ42dfeQhPrnsMO57uRFtypj4iwHteEeXMJM6+LMIZbz4f11x/KVIdSaRbAknXyMKa1SXO8FUKvKrAu20iyAo8+XI5iuB5bXGSsJBDoRBh44/24J67HsaRTUBQyMKL0nEaBgKviIqNKwYhErNGcepFGdz0sUtxxtpT4KVL8JCRZ/xSCj5Kwopea/CPO/AKrqKlVK2iHq/Lk5MoRQX4aQNQWAyx9Ynd+OXXnsQjd+9Ee+ok+JNZRF5xCvCaL+/RRdkQ1aiIREcf3nzLRbjy/RfJ5EtJqJn8rx2gIqjJpFS3ftAyXkn/uAPPyrrgE2h1bjwnT6HyPh93fOFObP7BYeT6O4StlIseUqFXB3rgRahEhn8zbFzJ+imUsgXkymNYenIGf/SxVcJ+/PYqMpmEiJ8KeHGyIiyJ7IjzAetBojje7rgDr+Bqg/SaDRNqrw6LLD4yMokN6zfg7r/eiPEBIDHShiCaacD1UkCkoNYgUfBrwNfuQdhLQTogygzi7Ku7cdNHL8eSMzuQyZjOn44I3Hg3x1cy/KoBr41R4DnsSWGTw8CO/c/je5/+CZ76dR9mjS9DtjCPUri0syw0mIqpu7HxCj7ji4kC0tUMmnVEPtsH/6RxvPO/X44rrl6Ltvkp4fWUmPxMJqZysj0/7QlRNJb1Sl6/KsAbNlKQBlKupsuPRujbOYJff3M9HvnxZlSH54l4SF5ugFMKbw66C3jgpVGJigI88yZbokvKP2Ty5RxQShTgp/KYe3YGN9x+Gc6/7mRk52VlUaYTMCUpZT/28ePivSrAc1FTSRt2wZXn0K4K1t29Gb/69mMY2T0T6dBDZCUTlVp0slQAKbm4YDNer9VXhBonYb1mOo4gip/V9hxOuXg2bvmbS7DqnOUop8wIo2T1/wWPJ/WEqRIoypUmy9j9cD++9eX7sPvxcSTRhqhQFsqkiosUqqIh1QTK1wlcEobyG0HWa/rGUTKqsSl2pAJPn47llCj9YBRt3RVc9Y6LcfX7zsOM+TNQoXTlsB6b6SvuHXeKJ/B0L9zXi0fufzZedboyOeXvVLUsUouC1NhSV17nPQV8arqatKN5uT7TawczT3ZAtiNCy6ISrv/463HJhech01FTOzTm/0pdvyTgdULUQt2JkmFOUFRG6QqR13SBl8HYniJ+dc96PPzt59DfM4kg3yGUTqrksC8lkkhXptdOuwC7YZN/DWSt27F8pXqm01EEPycr3yA5gLPetwjXX3wTVr99sfB6yv90upKWEZw2KmfGu9goLm68GycZ2b+jAs8ZngonZq4ZaEFcbaKYlvuiQbQZhsUCAq9NlFmP/t8BPPLkb7B7/QAmyj7ay3NlpcmkbA55LXm78nW3Ym7YBVzDjb6bvlmY6YW/O6xH08mIsGoHxlH6eet1b8Yff+AcpOf5mNlliItrAJXG9FniovgoNnqPvuLmxjE8LfBHy8QtiKpX8kThx14KlWHDx3/8Xw/g2R8fRgKzwAUQxTxtoFZCQVcQNZ6+xjX6R7vXmFav3XxdtiMUj7TU3R0JlUwefnYcs7vacOPHL8FF150hup9KlIOXhqggKP00YqQgM74Y5ZH2zMaNW76GmwKvGbq9yQcUcIZ1iU2FFsGXuL0e7vvaNjxw9wYUD1UQZpJGieXoV9wGepiJAEb0ozjY6BS4Rp/pGuNe6rVbBp/RdYJZcHEkGnGXqgc6Lr4uv3EN3vL+CzH/7A6Jo7BAR/B1xSsRDoW7GOo91z8q8JrQ7UnGUS4nhVM0TJTaUCKVb+jHXZ/5Ffa/OILEUAsIqqSxkoRea57qs/F0XP43gsf4xji9Pto9TaO+FODkxWulfE6wRqIyeuSKHQH6jPD/dIiuzg5cd+uleMMHu9DWnoU/KzS6H01o94D1kr5LqG48w02BdxPpw+xZKq/8tJkIGQ7zCREPCfi+Z0eRLWRjcdClbA5pl79q/pQuzNRVm+gULPWZVsON/tHuHS2tls80xhkK1g5QHZC2QaSgTBKhV8SiJXNw2z9fiO41bZh9Sns8ARcKeVHycTWuhKrlNPOnBV4Bp6/8Sn3ue1Ja+c877sG67++CV5iNcimN1mpWhiorSuc2RCmM8aSymqutTBvB0mvzjJFgNE79o91rTMO0Cqo+R4JwnTvRs84kGo5x0xZggqvfZIQ113bjvX91BRauaAMyVdGuqg7IzW+6ThDgFWR9gNd0qtgSfh6VQIlluKeCdd/ejF/e9TzGh3MiHuoiRZ93K884pRyGKckEwvPZoPrFTizeScLaAkrznc6nyoDiqcuu4o72UghQhLKQGphGBc25Reun9XavNSxVshIRVQ+t1QxaF2bwhncsxbUfWItZCwLDfhztpourG5a8Gq0MNAF9lV2ZkDtB2x7sA6WVx354BPPmzkCxtx2pdAmlkp2QmoiGbsWV5TA/Gb5WnNRG0adrNiKYj3awdpBSdC29YWmGSplTcxZiSqnxeV5r/pqnXjfztR2q+19yzizc/vGrcMplc2Tfl7jRNbIdxZb3YlZDqg4wFvNofZDaw6Gd47LXufm+ARw5nEc6NDtFEcakgEYgJNL+seJ0msa9J2GqBuis2lcVXhLn54DEhLlfba2FTYz8V5IlBGWbhxMfVObbq4ywP440Oo62WC1hU2gdleJt9BTP7QTTuYYFMWG1cxJvvGGFSD9dZ2Vl54uCWmtrp8wDtIIQF5lNFq9cnoh0UUAenuRmQCEpE+fo4Bge/MoOPPqL36FvV0q0ftrbzMQUzpBhGe5QdynHlGj+lWoVCMry2imk3Ap/mWEkkmNomdeO8cSjOHXpXGS6gS60YcmqFF442IOVJ3VjfHhEMu2ZHEdxzywM9ZYxliujWmzDRH8rquWZ0ilRxVgZNALrAtm4mHupncF26hxA+X/uauDSa1fj0necjY7uAKmMF3d0CT5SXiBKuBh4ioZUjQYloDDsYdOT2/GjT23Eto39aK90o+jnkLZUqQsfUWSRikCRjDNCvSKLlTLxQIXipTqKomQdLhUGQ0jO3oeT1kzizDNPQffZEzj39YsR+Tn42QipLE01DNBBtoBKBUh4GUQxKQGlsZMQTnoYGQX6+w6gd2cFO57rx/ZnxzC4vwuYXISgYGRxhG0xb9dq0Xc7h3VsbJOmbUZYfJZ7AsGsASw67SS8/X+ch7VXrahpPu3eL+V/YTWTlSHJrzqSxaZHt+O3dz8VrzppPqGujioc7aFWguk07PqNoqQ2TqiqbQdOWjWA0y+5EO/8QAlDIxPoPnOvFBlGBURJM9EzIvIy8BjXxNc6Ip+FxxFT8RBGGYSFdgwdmovhXR148OdbsXF/HuNPeUgMnh8ry+Jn3UCT9rlt0sna1EvZaU33r6vf1e+dKbqfZdcYwyrKAVzRCvBU/FA8/Pk3H8Bv/vMAJgpFBIMd4OKBjivQKZvNTsWEep3VqVtBHQkCvoqRltpoD3PlWyt4w00ZdJ40hMwMD4nWvQgrZYR+iKiahZfgCrIIeFbsi6byc7kn8YaRsmOSiBCVzTPsAC9sRz6XwtCBFH525wieeng+8nsSIBsSqnZUB0oY7nzDNqlzRVKN0xHMOSQWozMRyt4R2Xi58tYz450v7nAJqxnZV8Qn//Lb2PV4AdGkJ2YUzFAXOFIREcvIr4oidZAXN05UCjifdcNmyEL4N+9xE+LSawK87bbFmHvei/BbNsNPUBduJ8BEDeRq0e6PpkKAHacdELe41hGRZyZ7T0A08Y1xzC8qLsWRjStw7zf2Y90vK0gPz6EMIrya7RJniUM7gXEKvgu8tlNGr62Ty0KpdvYLZYwkCui67BA+8U8fwJlrVyAwAn4Ri+ctRssKYPf+faj2Gl5d8VJWk1ISqaNMvgzbo3YjulllWL5UzkosQizk95lhtLTtxZtvnY/rPzgLLd3rEPlHhLp9fwwBqZYjh3zbguxnDJikNxdQSdfQEXKfhTujwoucuYW3kiMI0s9jzgWHcdvSM7DivBS+9r/2InVoKQBusJtNFLY9iTQqIKHVq5+1zSxKRrRnFotxJ5HXByGCqge/MCbCwnhhAKPrxtDbO4hVKEDsGFLpNDrntaA9PQ+dXV0YWjyA59f3xyKe7UjxlK1oJ6gkY9JQurFUK2iPybAznVUS0N/ziTW46OZ+JDO7QB6eSEbwhU1ZKvfHDHCWdQlwSoVaEWVrXNCUOuClhk2HNabT9BwltjOosq6ERSRb+xB0A3906yqkZs3CNz/Zj/IOM0oIpkoqrLu20fXjrEmITrmKD8XjiUQRE+jHWKUHlaCAglXA0cI54KZFqVhBZcKHlyygc/FM8+vqwtbtT2B4B8U9M2loYXHmNkKoW9KYVSB5pnGkmpJQb2H2k7j5b9pw0Tv6kW7fiURmFOVSBlGVhwzGEFDq8ah4o7RD8rZgOY2SPBmv95gsZVmDdphzz1ailicjvJKMrLDswUvvR4QRXPS2lVjWvQL/8P4RsclMFv0p+wQyR9lOiPO1dVNKNyOD1D4qgE+Go8h5OSDKIcmpiuzSOp87R6T4oDVEJfRQTpiGsAPOOG0tulfOlu0xd3hpQcyDncCfOt7TjtC4ctsOXH5DBpe/o1NAp6RSqUZIJkMEflp+AqbLThx2IfkQUDo3XjtB77mgO6MiZkEmB5NNtQ1e2IVqUICX3ouF5w7g3X+VED18LC7b9jmPmaCXqmuztp+dM5nsEdCH/Z3IJXpEQOH9sgiHuoqiXb+6tJlMRcGVKCKy1H/uFatwyZXnonWhL7O/JmdH8Od2gt5jQQSfIlc+Oyzi4pvf324o3fZ6kPAM5fKhkCpk8veUCTNOQbVhdpR2DqlVnH2mUrXP1nWKJQYlCs3f5pdI5+N5hIRQzT6NC68ryaRPUZBt4I/qbPJrOl7Tcd3S2G4CPpw4gKFqHw7jRRTDGnXLQ/YvEv7hAl8EIt8RmWibQupPFIX1rL18NZZfMBeZhVWpAHvX8DyzyNCKauXEj0pItI/ijTd3YuFZPfASOWmsUWrZmgjAFiSlUstyyHYE7CgF6Sg+4pVEOxh3DFlHoiR8242T3N3Os8XFHu8RRN9QYSIVIjV7l0habYvMnrHsIcQPmADbxXbTp/RChZkCTiovBv21JyIh41jHxBuezHrsPHVpoJIrI0gk4YWe7ReAa08kykjPTmJ5S7dMvnvbDmDv3h5kRQAw/FxFT82OlZoM+rFq9UFc/OYF8DNHUK3SWpels5ftPOCCw7ClTE/nCdsZFAN9z2gUo6rxtazIH0GQClGpFhHUxrDJywKsHajPxOVLp5ZQLvkIsofRfsZuWVv84LP9aKmYzRxaQNDpXEfQCXjVGxMKrwZjKEWjKCvd2gEJCzyf5QiJ5ESL6Ywa8CQ6Ef8ioJo21G5rWRFtWwnIptB5cgqdi1dh6f5F2PL0CxjpNeKXmVBragOCm5q1Fxdf1YWWk/YjKmcQJCP2ZEzFNnuQVZBqxSlQ0gFpROUWhOVZGDgwC6XxSRzpbcHk5DD2HAzRlY4wb3EXMm0ZtM0IMHtRBt6MMSRaDpm8OOE2uLqyeM+W5yXy4AZmtqMHay5ejd/8eBCTO8bg+UUk7aJI1B4eUPIL6A93goBTWily/eF2uJbpmQ6TS+kEO7KFXTHW8vzAL8KjDG0nWKF2qVyDbjxRxOz5GZD9HNh9EFs37Uc5X5JepRUNWUk+Mwl/Tg/OuuA8BFGEaiKJsIoawFo5pXz6XkkmXYp81ZKP4sgyPPXgKLasm8Cmx3tQGDQyeSnP5beIPkhl90tOyRke5i6fkI5+3R+tROeCIwiyJXip2tygRcbUzghbrt6jaLro9ApmdIwjlw2QzXcYJZdXFH1V3s9hvHpAQC9VR+2kaZ4uhyGSfkMPEHB2gFeWVYGWU6N4G0M+T1ZDR4bDPgv8CJVQRUSTMMwWkc4msaz9ZGE/pP7RoSqKpRJIOrRRWXvhHHQuso0PmY8jlShbseWKx2Hvc/nQguJIN+787EFs/HYEAu2NrRURjyNLRFTdGRozVFQ+AuzoncSexwfwq+/l8OG/PQ2Lz+tCtmOLWAYo2HWsyC1bqY+61nk9eNPb2/CdFwZQzncIayQfF/EwzAF+HojKU6h8Cuikad9HMQLYKdySUVffPWHtUgdJgHIdz+eDEUcGOyUqifhJ0fOya8/B6efMQ9v8EOXsCKrJESzoTiLbZlmIXVhpwQqEua4NQR36P75zLx65q4xibjVK48tiuZqTOuumPkU/0TRSvVyO4I0txqHnsvjyv+3DyNZThOKjIk047LBWVqYVsRM5L0U3EwJhpYhTV3SirfsQqtnDMnmqeFjGCMpRUYB0ebhm1+gLG4qSCIRujVUd09SQthSu1N6YAa/ZCXRkRxKyKoEoMQ6OgFPWzsBll18E7sh4c3qw5PwAnPjkWUoPjY2WO2Q/npFKOAEV0xgZCLFlfQnR5DJkwixaw3qjJ9WFqEgnEgZNRSrzRaGXyS9G73Ptooup5E4XLaUtSrxKg6Rn5HxKK0VhhX5mBB2nDmP24gT2Rr+DSCsEmxTrp+TXSN2yQGLuzoQqhVlW41V8FGUWMTWp0b65jv8594p4GRrJpibnmCRJOwHryGCsF2aRnh3hdbPPwbnpfVi5Mo9E2qh45Snl53EpfMgR6+SkfIR9m9sxuP8gwmK7iBJcDwQe1wWUgsn2jC5HV4riS54ZpKwWmaaCWzcWUTlwLpLL9qJcKSOZUrGzaFgnyw5nWkmIouuYTPRktG3tM1DIjqLkDcg8EAUhkiV7vN/jGoB1r7W+7CWRDMso+7U4t5kMpx12Vkfx8WRqn1Dqj0H3nX6yEzA7iPf1R/YT+jkk5qQRZFW+aqxCDXC9U44yRsyk2NY+gZFwEIl0H4rFoixYxAKYrA1mE4XPMUzVdYVaSblnw9YUe6BnGM88dRCozIMfmtEUVWYBEcFmZ84U9lIu+zLqeI/xYTWDZHYCrR1FpDJmeJBixQno5XgxJZRuqZrgi2ukehOLosNuHSTJeHhyuja5Mn0MunRwRla07JC4k/wgnoxt/qJFbEUID23NlVfKctSXCbwfCLtEh75wcRkXXjgHj/cfgFfoMBpCsY9nCWSWHCV2so9q6mbe5fEd49PwoAP7dwS4IHcFvOx2ibfQSFj/PG8CmGiN1y6eP4RyvhXLlp+BnxYelWRmwWSGE6lfuUYMNq3Ikh7saxQ06zrfpfh64EMfnlUE1z2hbMcv1EC2gEchhxYZQBmU94OEofJSqQsRdhkqdgA2raiXkMhuqlVSYVGWEu1dPm74WBb7R/ow+Pg2lAeXoIIJgBveVNOKXK2TNhcnXdIZwvPF1IOUbybsdf81jB2beqTYPJ5HOuIxH+OSrWb+2Z/v1ajYL1XnY2L/QURRh+EqnJwta/HKDOsIKMd8vcoVlBEI43w0wM5SEYKq+HrgyUrI0x2RUh9UtqPX9OM5QOV/oUTOCUWkUgNu0mOGjaipSqQRdK8o4R8/uRKP/ayMB3+wHT37FsCbGARyy0Wu1vaREsXaQRY2XPxxaM4UnT43z0f2DGFkp7FQKAfnwvNGpS4jrf0oDGYwnNgC38sCQR6kIZ9DosLNl0PwIhPftPKWvchkyg6Z7tp5WFvHqHrgQ4o7RmXgpI87ommHkNo5qfBJL4VytYREwjxdqo6gVShFVbyWSjkC3IlWw6rQSo/BRxqzTn4R13xgCS57x1xseWYQG+7JY8/WAId3zECYn4FkJW8IjCOBJiced6nMaFJbm0AsDFJAJQ1Ui5hMJMwyvzKOkjeKBNrNarqchlS75DAjAlq1lK3AsmkWaFKxHQQuXC8pXA/8NBSv1K6+lG0XWWQx8Twgkg6NNYEJ+MjnZqFtdgkJnn+ic1eJjeCbFCLlUKcTeW2ysY30XqTmzsL5l3XgvEs6MN4fITdQwHMbhrDp0TEx6RgeXIbJvv1IlGcCtLGptqKSmBDxkqYnlIaKiQh5b1Q2X1jUhGg7kyhzU8T3jdKLa4GIkompDEdT7FyEbSfIhGs7QTujzo8fnhqoB/4lUrxL+Qq60on4XgrjA504sncYC06h7bzdL3XLVyrXOBkZpqFGY0gdENcLRiHmZw+B8vfM7jJmLGjD/OXtuPY9Z2FiyBPLhD1bujCeO4J920rY9PiwqBfyuRKqpXbRj7OYw+EBKa3sjRh5PKzNE7xBoMtWW8lrXSfIQxZsmWQlsVUF6EiYzpeHp/7VA/8SKd6lfDfLMvdNqVoOfaSjhcgdGUYlX0Iy2fASH6V89d1M3DivhKR2EKUanzaQSQTJUdnBqlT3orU9jUwxi+4zM6JMK47TeGk+9u+u4MiONLZu2IGHH92J7fuGEaFF+LdpdBleA8gyX1Ddq6tcF0xbx/ieW+ffI1wP/O9B8W6ZItGEPiI/D6/chp3bO3DyjnEsOs9qC93ECqjGuZJPA/iahD4nYW6K6EZKhUZWqTF46EIiyaNDh4VFLZsDrDhnAS58a4Bbhy9Bz6EyfvurF/Hk+h5seyaPUsFHtdwihwtKfMdKxLmtLTZpkcmSk6vLYtyK/IHheuD/QIoXzSYrJJJRXqh+786dWHhWFrLjQ4GBoFkeWld37Qh2gHaCxtUlNCoGRnEBRMfNa3mLUDxCzMoW2UPwswBVACuX5qUjbst144Un2nHHV3dhx5atGBueRCroQsmqUYyMTm1iERkYBZdbvLAaFS3dEdGM17sPNoTrIRCKp3CgwppJLWKj82DjtXNL5HlZxYZZofpDhzrR+1w3opIniyml1DpwLYWrDYybXxzWzqDP9E6n6C5SPHnrpEg1c1gUtiQbKZkhpOb24XVveQFf/X4XvnvPLbjxltOMDsWCGFaMERdZSrx9R1C9MqIgDy+cEcvtcd1eRkB3oOqBJ8WrfO5k1tgRjddO0rogdTfRUDee2zCJkQGjY68DTUC0msNwpmw+y33uwco+rCv52qwdwCXG7RAtXeM4Kri3y1VlZlSoOOkVxI+ye7Fg5S787b+dju/dfwFufF8G+UXbNAfxqx5NXFRsoCWWhUvZTzMqd0eBVQu7mVLbRHPtelZzDB6vGahUI5QfVmripE1AtTEnWLpqYTEOH5rElnU7cfYFPmbOK8JLcGe/r0a1aprBBwiaA5zNsiaKKvBMo+E4kRVZNR9lbQQ/Sgn1x6ODHDF9CFFUwIpzMvjLBadhyalzcMcXtiAa9IT1yMKKKxQLZtOJ9Wjgc53NTe96BiJHdf4giiflk63EehviRo2HBZ1hP2xDprQSvVvPllVo/765qOQzQtFkP2q2F6tqCWYjoLxWoJt1igu8hm0+SvF83mVz3GrkL9kyDIqqM5Zsx7s/2IWvf/NqnLy0KhZnArRSvPrMP0rGSjLtlKZ+E4rn46T4euCPweOVt7u+gO4HAr52gPD4WOVk1MXh5GkY61uDjfdFOLxrPiaPrADQ7kgpVqbmxCW/Jh0gjW7Q87hAy31n06MxfbNO5TwQjaGCAXiZ7Vi+OofbPnEa2jrywtPrpBoH/KbUr3Whb9lRPE/IvWk2QnAMHq+83fUFZEv5brluWDbL/RAEf7T3DXj8npOw8f4APVuWojqxFF65PR4BYoHgPsxwM2pvHBX6DCdWnVw1zgVc89J5hGnsfc4DUXY73vSW+fjIh85EW+eIUL6ASCAtmJptUypX1mMTceuv5gxnn6okOwaPV95ey6g+xE6oUyGwTeSRtLxCDh6y8MtzEIZZHNoB+S1ePg/tJ8/D0uUBki1D8KK9ZiJUYAlQo7WAgsfimU6v6TfG8Vrvm7v22oqc1rzDGEUBtDaIWjbjLe86E8/v68FPvzuMKEjDE8WZzaCxAzTfJn49jzcUP3VyfYlyfJP8pwCuaWJVcUiBmpsKZr82LCxHpephz3MFRC/k8MLjvZi/YAkWnzUb7bOA9Oxx+Kk++JkhRMV51jDVsBkx0SAhKdAsTC0UXAs1va+dqJWSzqo3+ebaghsiXsKAn557ANe9bTE2PDyKw/uKhhlUfXgOu5ERwGul8ma+lil+TZaphXjj96R4l8qV6gkyF1RczZI1Rfa6ljaFwKugQuOksA35gTbsGQCe2diLnpGdKBY3Yu2Zs7Hk/AyWLl2M2QvNYbJE5jAibxQVrtK4b++l7baeNa+m8kvFyEbAtSMkxdQ/2nIai1mA57DOWnMWzjq7D0d6aXhqdTcutb8s0FmeofiprOb3oHhhJdy5CsvwqjPE6kB7U+457RPrBG7BieUC5WNSC9mFYRG58XE8vW4XDgz34cjEYfzmPpqQDGLpim047YwZmL+gE1dctQLLzpgvLEGaUs0iyBxGpWpGk4iLMjk7mkUmbMpu7ETtdoiyLpp5tA1gzUVJPP5ghMJ4w+sXlfJfFvgGmams5rsCkGwAABdDSURBVCVSvPJ64ydFBx/YIzOEU4zFuCFNNbHdd4nVCcRAJZ6qMQEvJ4BnntiGR566H4XEiPDTKlrgez5KuZOx9ckinn8qBz95CN/6Yi+SLQWcsXo2lq9qxelnLMC55y1G16JZ0sUhN2W4TqD5Nq0Wyi1mzdAMfHnC/in4BF5GSlEsJNasnYeZsw+iYMwpY/Vx/Ggz9qKdESfSwB9I8a5UY8z9qIPhBog9aJzMibrA56uvjCGI8HcFnxvi4vwSenoPYPP6p7BnYI8sNqioavVbMBGyC8uI/HG7ysvKSM1XgMLYXKx/sIj1D/XDwz7ZkJ7VGeCSNy7HtdesxPxFMzF/RQ8Q9CGRmqxNwCxUAVYs1HcoXaI8btoXMbPNjArV0dA392tbfprFsX2+q6T8B65cy5nY1E8W1dz54UaEULxZ6nNEhMm+KfXhvDh6cCueGtyBpx/Zgkw6i8nIg+9nEUZ5TETtlgUla5OZaAppVlFGlOoX9a7HdNEclMplHMmH+NE3BnD3XQ+gfW5eRsRH//pKLFkxiTTtKVv3mpWrVSHUSUONoNsaU8JJtETo6Erg8L48/IYV6BTxckpLp0aombayY5PiGDxes5HJMmk3vh07yyiZQ7mrF6cseVqS+i2U3X00+vv69mACQ+gKduOqmzRX4x85uBhPrRtBizcPRW6gsCOTOaA6bvTkVN+WeFjMOqu61Q1ogpPrz+KxBybx9Ibv4tb3n4cbbl6FBSuLCLKHLB+0I45ZKO9vBF/YTRotqTZ0ds6CH1ThcfvQddOyFDeRG64toOqBPwaP1ywM+6ApiG9NQmoT2UktOay5oB3ZOTk5NplIVVEtAfR5GJjWtxeUuoFkF1A+Gwnu1PHAF0cQgO/f1YNn1x9AIRoxm80E2srQjXucZENI5OL7XNCEMJYD1TCDYj6Nb925EX5mFH96ylxEfha0g69zCrgAXbtD9ULFvP+oFtkYOhp/b9opBu4mUg0NB6daGShP13JlctT6iw5IWYvpAC87Cj+5H4lWI9pRJy5O9Nic/DxjxWujyXp4trUapTGrq4ogM4TiWAtavPbYCEh4rEtxbDQn9AaNYYguJCm20XSwmpXJ+d7v7cFlV3dg5Rqe5cqJCGqLtvWyizBe2TrKvoGYigBDQ6NAlTZCSUTJImDfGFiXR+OFK3bKPWKTjg8muOvZmnJLN7KdEyJuvvGE6Uba8NgkUMl7iKrzZRgT0NjZFaiX1gmqZPT0HPFhCslUAavXzEH3KeaJKFFv3059uPBV2yjucnlVy3ZIYVESychDW7UbYcjNcuptshgdqmB8ROvBFWvDCpfFkeKF+s3CihRPs7+xEWB4oGo6melc0JWqm/naaB0VVr5THl8PvKwsrb2MgNE4m5jcYnFQKmKonc2iPc1wjt/mmCUiHW/zJGGd00Zb3qqdIHbsABYs9XHG6lbZxnONPLkBoSxH8xPe7+eMppCTrj8ulrw8aUfLgSpGkEgVkM4mMKNdRAB9tAZ+LSYOsR3cQKHZn7q6sm0n671pfaajs4TC3JpvhKg69xgU7xakpwQlf2uUufPFQfC4DBtQd8BXqaqBnyoFUhXgJwp41+0XY8XZXFzVnygUpZTTaAVDd4VI4UGCuqHa+w+q3l6cv3YeTj55gVS76baj2yAljCglNpRjuaSMmDTZDgFMNHSg+2xj2KF23uI4r6d4O/KNLqX2tFnqGz7NWB2stRQmJPFRCXsP9OAX927E/b/YKosP2scoqI3PxOKcvUEK4/KfsvPKNRN4y03zcfKqHhEvhcUwnaVqUjbjZH+UjeEka6mKyXhdCs1Im7PQx/s/cjqSM3sk7ykqZyUCAq6j0Bq1Mq9nnuiDH7Wa4zZSVwWrRskSPd2fA75L8Waa1RHlHExgPpTDXce+Fv5u7SZlIeSl0HNwFzZtfhZ79+1ExLNEm3YhN7gYbbPbzekJ2yCduGp+rWO41K8Wecg5RCIIcd07OrH8tDfiM/+6DXtfHDfrX51IWSlRWPkG/KqxiRF2xHvJXqQC4ILLu/AP/3SjLKbC5KioGSpRiKA5B42byk2ZRKVDJK0Xnx9HvuhYlNo6cJIVg6Zm/F3Bdv0GijfAayeSxztSjVC80Lk5kkPgRdtoxc6JoQK27FqPHbt24sjIQQGBfdizG3j0wX5cc8M8ROGImD6LJYC8F8CqY+Nm1gK0RJB0fgkz5+fw+q75+Pqaa/DwA/1Y/+h2bHh4WIY9KTA/0WI2Kqo+ytUICZ8vaQtFh37qyjRufs8aXHrRMmQX7JIdptCaYos+o1Zk01BU9YVVvvh8Gc9t2gVUlsfpZML2ygb0OPYoAQUfeWHEyuObUryyGPoEOmkphBQuBwSiCD29u/DQuodwZPiIDHMO7WTVQ5HHNQudePS3z+ANb7wKHSdRHuZJC3Pqg9QU73tS6lBneatsz4l0MSaq4NScYVxzcweuumG1vAho744KJocL2LWrRraFcEBOAM5a7GHpoqWYd+qgealQ20b4olakUZVVKZOlNZ5O0bnH1oFaymopjWee6MHwoGNR1jBZypyjwB7N571Gipc37JHiSYhjNcom6HQ0RCXLCXggAEWMjo/joYfXY/ueFw1fZbIoiZTPhdAI/Cr9FjzxSDKmeu5rVkJamVG8czSCtqFSkPvnleAV58rZf7EeC4YRpPjbj5WdRhl2Lou1512pFOMbm5JZWqz1W2tO6nHNUI6PWNpND6F6tx5u2ZzLogz6D4T4zX1HMNLXbQydWF6iP7Yyk3UFn3NZTUM+Yodp8fEqEI4Q62r4knp5x4ac7C4iaUUo8nJXbOSmxeaNu7F551PCVtJ+Wk6zSVm2Ryk7J3wfCaQxMdqDO7+wReTyBUs7kMymUanmzHFLpTC3onbhohMc2Q5tYRLOoCAlVsLDMcVKm6zk5AVFsZPkcz7fcZOuibHxGVoBynY8w27Hi8xv2KA/OR/3fv8AtjxDC7huU0tHUnKrLZO6joS6G4iNX3XiD6wdKJPVy/FifsczIQZ0+mQvew/sxi9+dC8efPaXhrVEyXiW5zFCOvU1XB5fLrz+q5/7HUpjbSjnzfkh4eHaYPoa5uJKw9bnu2XEyIlHbaxxEvNnHlxZ8kfJycwfEGs1hqPUEdnAjvNr7Ggth5nxHq+l/CLKkx3Y8JsKvvf13agUOsVmvuwb28+jbnBb4mOWCrSE7R9HSMV+UIBRAZXydPLalFhaoTRTwkR+ABvXPYMDw4dxcKRPVoWS2ClET7+pz/sSjtKYHF2GR3+7E99Y0IN3/ekMkXIEFNklsitENRxtHPo0x5B7tIkx0pXwfxagaaUylnIFXBq28ppHhXhgwb6CxXnGzDGW6sXWRm4K+FElg6H9i/G5T/0CuWGqoanryNfareWxCHd+cuIlGPEoahFJlf25V1ZNoyR7FubV5oF5OaUnGkC+NpDOSCvPiLRycOiAACnLBsuv6spxeRw7xBl25PtDPd34+h1PYqK4CLe893WYdzI1E4b3esJHaGZnDx+T8hRUZT1yKo98sK7U2uhwo1VXTmD0hJ3mZ9OR7Ygexk/LHmsySKJayspiadem+fiPf38M2zcnzemQIIRfJfj17XKLlLASouMn5aiOXfmwIzy+CdcwGNmB4ttAqaxMpmagWDAbEyqT83CsS8l1hSjgCrZTqFaMCxxWvDjWjZ//0Nimf+TPrkTLPPOGC4qa8uopfY+BPuiyAgdMvR37BFXT1nWaw8eZWKlT85Jn0jCg+/KiuMMvzMf/+ex6bHhoAKjMlnnKbpHGxb3cgEzAWjalmiq3Pc3K11B82sPA0GFse6YPzz79LMYTw/Ai0zvCm6rJKR3gzth1E4x2gKhzeSwRctylf38GP/zaALY9fT8++OfnY+3lMxEFBSTT6ZrEw5a5QGpLFWCXejWs9/RZvVZf4zUv+mQxEQ2MO+Ws1P33FHDXV36G7Zv4joQOoxAjNeroZZscAhP1tB6/dPJ132VgDhynzQRrMZFFFw+J8pCeOTNUxmj6CDbs+TkSiZa6xQF5WbJ+CpYKmXf1NBj5aOWcyigvTPkZFMfn4Nn1g/j73T/BpVecinffdoFsXEfBYSA7aawFRHJhBrqqI08ck0lU48j7hT0J2+CbP2o287QKQ2jeBiIsxe44xeEoBa9s3sS3fVMbfvjdZ/HAL14Unq66n7j62h53dJM2moAePyMaUnucRzrOWBmXEgW0tacxu5MnFKmNDcOI753kp4IefWg9vve1b2LDr3uRTKVqBWjB0/lxqQ6VSO6Odsc+yxEkLshj7sJCvE+66vUzxKCJnWDkfnsIgQse2ZSwE6yAbhZBlGDiBZdIO7VnZGEinZcGV6LUNPLdk2G5HdufLuDhh/eDevr+3hBRZbZMlkKxzoRYR/FWF0/QGym+jqUI2EZfFCRmooJRZGZHuOKSN+BP/up6nHbaCvmQjQBPZs9dEb4Yji/j/+Xd6/C5T30Zw0cG7d6mFaYVeAXaFmIO1jrbaQ3ppGLUm1tZuBSNIcnNkGBQcuKe6+LTKnj7jdfhrPPSWH62nXyDEfjUsSQn5TUq8e6Rdp5OwK7Pvi9b0bUCBAFQzS/B4KEIT2/sw0/u3omtmwaR629437BtyxRRUNuivrbd+kpIHNnacWwfVRiVdITzL1iDj/3PD8onTt0PPArwzEO/bMPJlt/82LlpFz7zL/9bNqNLxU6QVcSrNDaORvoUt7TCWiEdnpavMboZRbCBombQzWcOv2AQ6c52XPz6DNpnz8KN752JttQiLDjVEWl4RilRU/tK/iJ5aAVYYFpOZg8d8rB5607R82zfOo69LxblCA7KC+N6EyS3bQokc1M26eRsgk06gTxdTwtSSYelJfzJu27CbTd9GB3dLfHnmpiBvFuYb9NWaudnKPgJCvYMP73AD9k+fN/j+OYd92Dn5p1A1FZjP1NqwwZbczbec8NyOWJGD09UqNNO4rWG7ckLLvc9TMbvEli6Io3uhbOlQ5h89rwKwsIs2U9Vf7AvQDk8AhdkHjjjwWE5z2rLFTVz1ReVsxuv1ZrWb2gT22jeR2NGKPNVtnLLf7sBy1Yvkrdph8WZ8g5TOTZgP+oeU3yzwvQ7UAcP9uLuu3+AH3z6Oxga7pD3NmYoJoah6L6bUgYrSedQvlw7lXdHglCa3UOV/KZ5XkBjRpSJZUHCZX5OwGU0gXTzbSyzkSDia62X65NgfGvdIBnV/5HXUw1QqY7JyfBV187HR9/9dzj9kkXIZLz486Xulyf0O4J1wCuvZ/ZUnjERWRC/08dv4B3qPYx//5svY9uTDyM3xHcCUCddM22bMky1EWzAdKyJhTnULkAwTu1o9D6j7FFIt5N4Wxy1opz4bBqNlmt3lPGGEoN2riZu9G06zZN+xRGtCXwpMSofbPnwn38IV15/HtLtfCtIBvxiGjnJdK4OeDeRaC3FLNRkQMmHzpV+nnpkt7Fttw8Kz6ZyqmK/re0AH1OWA6A8po1X8Blp2c0U8c6WE3uav/r2Rp3UIdKINQFxynLTaFh9ZkOQXeeOak6iEUqYu6gVN9/6Zvzxey7DgoWd5hVcrD6VYU0+T1SXX+M3QvSmUr9OuiLvywdaQqQ8H0eGR/Dzz9+Lz//sy8CLy2VIUh8RTzBWcTZl5asFNPoKCuO1E1yf8Qqwm1bTN+Z3rGsnL+HTclbJEX9dAnHSllN8+XSEC65ejRvf/VZcee2FQowtHeZ7gFosJ9CjuaYUT9D5ySEdLgo+JR46/bQFvx/Cz4R+/jufwzP3vyA2MKlSNgZfKIivGKHzykbcsick6qhLXsaQFpsVYxFWO/BVB7bbEVHSvB+mHNn3xFDPU7NVj7fmTOnN/zW9vevWKX6AaeisFNa9cgbIVi68Yg26T5srH3rn++CNzst8kEXx4WPTsZumwJuSpn65S/m+jgZ+aYHDKt+XxxPrN+HbX70Xmx573hjucHWnWrq64yiaexNfgWj0SX3sHJunjIgmj0vU0Z7VZ5w0TTvI6VSWRbbTsbAFt3/w7bj67VfJtz/8ND9RXUQy0dH0C2eKkRbZ6B8VeCbWDNTXDDgKOAL4QReCTzF0ZCSHh7++DV+684sY7qvtS+rkpM9O8R0gBNRprhV88eVlPc7ImJKpE6H5OVEyOnjNUUSnoqHDcoTPB3lc+ydX4fY/fRdOPWuJCBnTfeXSZGT+G/Fy7zE8LfDug27YzUDB12HGD3TxlMbAc3l88fNfFFMP1/LKVSLFDXcypOItTKVQrZSQCIzv3H7lgtoRLmUDxjw8Mi8SKqaHceHFp+KdH/gA3nTt6yBvjUwbBRcJzmUhxMd17j033g1PC7yb6FhhnQP4uZ0kJsE3vhZHIvzmJxvxnf/4Pp7f1YNkKkKlRIWbYUFT8mzg38ICypbvH00pNSWjaSIcsGMqZ1KH0rl5EaSK6Jg3Q6SVd9/2dvmcNHdDw0Ih/s5hI/DMxgX/FQe+GeU3xmkFWLgo34bL+Oynv4R7v/JbVNsmURhowQzes1uGAlMD6HXAODgqq5GoRiD12kl/rCCtwyqJSD4pwZMoXC1fcNXr8U//9gnMWdSJdIsxwmjMp7HNen+6eL3v+q8IxbsZNoYJvo8SejdP4O/+8V+wfd0hFBJ8rYqRdmSLTCffY4HXeF+v1beF13VQY4WaXJOtLV3dhr/451vw+nMuks/GKdW+HDDdrI/13HEHnmxI9T8UPx95aCPu/Ptf4IWejfGq161wvFAhmK5zJsGmE7CbVsM2D8NCanp0XRzx9MmCFV0iHl5z/aXylWI+Oh2la7avhP+qAK8V5VfV6PoOjOOe//wpfvCtn2G49yXs4PMhperpfJN1038dAbHPd9HMreKtN12Ld33keiw6aalIK/qtWmZyrAVQ04JeRuRxB5510cmXYX7ajt8TzI2EeP6RA/jSHXdi02O7UeFLfuypkKPWfzrgLXXHz+oIYZnygs6ymPpxg2fVdS24/ea/wNo3rkJbNiufhKNIzLrxq2R0ymri/F7hwHEHvpHXuSIolW/jh8fx2/ufwHe+9X1s27IDqeqspgulOlFUQdBO0Gv1VVKheKWnOFAUNe0tt74zXnVy40eo/Bh6Fc32lfRfFeBZYZeCVAGnB4spnu3ZfRDf/dJP8Kt7H0H/kYljU7+Crn4zVCzoHfOSuOptl+B9H3qPbEqY/YYq/Eztkxeqrm2WzfGIO+7As9JK9epT0qEeiAsvDm86DnHufG19Yje++oVvYuP6p5EfMOIcd4iUP9eBMA3o1JJy6zT083jbW67E7R+9FYtOXYigPZLVNvNg2eTjWifGaVj9urJe4YvjDnxjI3jtOo4Edw7gvcqIhwd++euj73wp6OrzQasb4iKIuz9/9vH34ZLLzxPxkJ1aSQcIihXZhiObIeWrk3roHoT19d7x8I878Kx0I/jTNUTTsSPI/w8c3Cvs5we/ugvRzgVyDCbWXtpJk9dc5dJxgp7RGYq0QrayYJn9pkhkKF13grR8LU+vX03/VQH+5TTIBUNWvpNlPL95B774qc9g07P7hf24rIcsiLtAdG+7+WpRZi0507wxm191c/N7OfU43mlPSODZaOXBCgD3fZ948Cl88ZNfx6EXB+AHtPMsyvc8Tr5yJv72z/4Va960WJR0ulmfyWTrJnXN60TwTzjgCQqpVDWeChInwomJIVG+ffHT38CPvvszBEkfH/nw7Xjbh/443lymmpqOawV+RdKVpjSvE8E/4YBX1tA44SpY5P3c9+0bPohM2CabElRF66pTvz3O9I2rT81b83ot/RMOeIKhAAn4fCtIVIpB1F0w3qP8rxNmHH8MiUTzfi1BZ9mN5qivdX2kfGUPSrH03RGgYZcdiSmKIw42a4iCTv+1dick8HWg2JcKkbrpUjwkwCU+d/Ht1xEUSLlHFpOo6dH1npundqwb92qHT3jglerJUuhE2rGGVgSYYMvipzIpvgJNX8N8juETAXDt4P8HtW6BQgt+GU4AAAAASUVORK5CYII=;" parent="1" vertex="1">
                    <mxGeometry x="366" y="108" width="94" height="116" as="geometry"/>
                </mxCell>
                <mxCell id="42" value="스플래쉬 화면&lt;br&gt;gif" style="text;html=1;align=center;verticalAlign=middle;resizable=0;points=[];autosize=1;" parent="1" vertex="1">
                    <mxGeometry x="276" y="108" width="90" height="30" as="geometry"/>
                </mxCell>
                <mxCell id="49" value="대학교/서점/한국과학창의재단" style="text;html=1;align=center;verticalAlign=middle;resizable=0;points=[];autosize=1;" parent="1" vertex="1">
                    <mxGeometry x="10" y="190" width="180" height="20" as="geometry"/>
                </mxCell>
                <mxCell id="51" value="메인화면" style="text;html=1;align=center;verticalAlign=middle;resizable=0;points=[];autosize=1;" parent="1" vertex="1">
                    <mxGeometry x="348" y="232" width="60" height="20" as="geometry"/>
                </mxCell>
                <mxCell id="52" value="년도별 권장도서" style="text;html=1;align=center;verticalAlign=middle;resizable=0;points=[];autosize=1;" parent="1" vertex="1">
                    <mxGeometry x="54.86" y="877" width="100" height="20" as="geometry"/>
                </mxCell>
                <mxCell id="53" value="우리 읽은 책들" style="text;html=1;align=center;verticalAlign=middle;resizable=0;points=[];autosize=1;" parent="1" vertex="1">
                    <mxGeometry x="730" y="10" width="90" height="20" as="geometry"/>
                </mxCell>
            </root>
        </mxGraphModel>
    </diagram>
</mxfile>